<svg width="157" height="48" viewBox="0 0 157 48" fill="none" xmlns="http://www.w3.org/2000/svg">
<mask id="mask0_5509_2" style="mask-type:luminance" maskUnits="userSpaceOnUse" x="0" y="0" width="48" height="48">
<path d="M38 0H10C4.47715 0 0 4.47715 0 10V38C0 43.5228 4.47715 48 10 48H38C43.5228 48 48 43.5228 48 38V10C48 4.47715 43.5228 0 38 0Z" fill="white"/>
</mask>
<g mask="url(#mask0_5509_2)">
<path d="M38 0H10C4.47715 0 0 4.47715 0 10V38C0 43.5228 4.47715 48 10 48H38C43.5228 48 48 43.5228 48 38V10C48 4.47715 43.5228 0 38 0Z" fill="#2EBDE5"/>
<g opacity="0.4">
<path d="M26 -28H-18C-23.5228 -28 -28 -23.5228 -28 -18V26C-28 31.5228 -23.5228 36 -18 36H26C31.5228 36 36 31.5228 36 26V-18C36 -23.5228 31.5228 -28 26 -28Z" fill="url(#paint0_radial_5509_2)"/>
</g>
<path opacity="0.4" d="M24 44C35.0456 44 44 35.0456 44 24C44 12.9544 35.0456 4 24 4C12.9544 4 4 12.9544 4 24C4 35.0456 12.9544 44 24 44Z" stroke="white" stroke-width="3" stroke-linecap="round" stroke-linejoin="round"/>
<g clip-path="url(#clip0_5509_2)">
<path d="M38.1176 13.6C35.9941 11.5175 32.5679 11.4607 30.3739 13.4717C30.3686 13.4767 30.3633 13.4817 30.3581 13.4867C29.9713 13.8618 29.9681 14.4731 30.3508 14.8522L30.9897 15.4783C31.3363 15.8137 31.881 15.8505 32.2713 15.565C33.2249 14.8805 34.544 14.9736 35.3876 15.785C36.3388 16.6998 36.3531 18.1971 35.4196 19.1293C34.0648 20.4607 32.5754 19.8157 29.8812 18.4654C26.2673 16.6588 21.3024 14.1808 13.9513 17.613C12.9242 18.0923 12.4541 19.2713 12.8775 20.306L12.4195 20.6266C10.3445 22.0871 8.77357 24.1332 7.91642 26.4916C6.93178 29.2983 6.73636 32.313 7.35065 35.2193C7.43916 35.6718 7.84269 35.9992 8.31285 36H10.5528C11.0453 35.9986 11.4611 35.6411 11.5266 35.1627C11.6842 33.9133 12.6886 32.929 13.9635 32.7745C15.4993 32.5885 16.8981 33.6577 17.088 35.1627C17.1629 35.6372 17.5834 35.9849 18.0733 35.9774H20.2671C20.7594 35.9774 21.1749 35.6187 21.237 35.1401C21.4002 33.9007 22.3957 32.9252 23.6604 32.7652C25.1972 32.5707 26.6039 33.634 26.8023 35.1401C26.8643 35.6187 27.2798 35.9774 27.7721 35.9774H29.939L29.939 36C30.4772 35.998 30.9141 35.5731 30.9204 35.0458C31.0051 29.9615 33.0642 27.9097 33.9455 27.261C37.7365 24.4813 39.7687 21.5884 39.9804 18.6653C40.1268 16.7936 39.4488 14.9499 38.1176 13.6ZM38.9912 18.6201C38.8026 21.2263 36.8513 23.9381 33.3528 26.5067C30.3623 28.698 29.9582 33.1939 29.9274 35.0382H27.7837L27.776 35.0156C27.5564 33.3367 26.2076 32.0148 24.4943 31.7997C22.4155 31.5385 20.5143 32.9784 20.2478 35.0156H18.0771C17.8521 33.3464 16.5119 32.033 14.8086 31.8125C12.7287 31.5433 10.8199 32.9773 10.5451 35.0156H8.32439C7.74956 32.2891 7.93165 29.4613 8.85167 26.8273C9.63347 24.6581 11.0714 22.7741 12.9737 21.4262L13.3586 21.1735L15.1213 24.1079C15.7012 25.0774 16.9525 25.4348 17.9732 24.9226L18.0425 24.8924L18.97 24.3832C20.0345 23.7407 21.0391 23.0074 21.9721 22.1919C22.1719 22.0169 22.1941 21.7181 22.0221 21.5167C22.0207 21.5152 22.0193 21.5137 22.0178 21.5122C21.8328 21.3167 21.5211 21.3052 21.3216 21.4866C20.4306 22.2612 19.4739 22.9602 18.462 23.5761L17.6499 24.0211L17.5845 24.0513L17.5345 24.0777C17.5322 24.0789 17.5299 24.0802 17.5277 24.0814C16.9684 24.3816 16.2667 24.1807 15.9603 23.6326L13.9474 20.2381L13.8704 20.1061C13.8538 20.078 13.8384 20.0491 13.8243 20.0197C13.5532 19.454 13.8013 18.7801 14.3785 18.5145C17.4459 17.0812 20.3209 16.6098 23.169 17.0624C25.6284 17.4697 27.649 18.4654 29.431 19.3556C31.9865 20.6304 34.1957 21.7279 36.1201 19.8421C37.303 18.6742 37.4409 16.8358 36.445 15.511C35.3293 14.0267 33.1971 13.7098 31.6825 14.8031L31.0628 14.1959C32.8661 12.5535 35.6721 12.6035 37.4133 14.309C38.5452 15.4582 39.1197 17.0279 38.9912 18.6201ZM29.4617 22.9688L27.9222 22.2145C27.9098 21.6876 28.3355 21.2506 28.8731 21.2384C29.4108 21.2262 29.8567 21.6434 29.8692 22.1703C29.8766 22.4861 29.7241 22.7852 29.4617 22.9688Z" fill="#83D8EF"/>
</g>
</g>
<path d="M71.2074 20.0909H74.233V31.5398C74.233 32.3826 74.0672 33.0644 73.7358 33.5852C73.4044 34.1061 72.9285 34.4872 72.3082 34.7287C71.6927 34.9702 70.9564 35.0909 70.0994 35.0909C69.9953 35.0909 69.8958 35.0885 69.8011 35.0838C69.7017 35.0838 69.5975 35.0814 69.4886 35.0767V32.7116C69.5691 32.7164 69.6402 32.7188 69.7017 32.7188C69.7585 32.7235 69.8201 32.7259 69.8864 32.7259C70.3741 32.7259 70.715 32.6217 70.9091 32.4134C71.108 32.2098 71.2074 31.902 71.2074 31.4901V20.0909ZM72.7131 18.6847C72.268 18.6847 71.8845 18.5355 71.5625 18.2372C71.2405 17.9342 71.0795 17.572 71.0795 17.1506C71.0795 16.7339 71.2405 16.3764 71.5625 16.0781C71.8845 15.7751 72.268 15.6236 72.7131 15.6236C73.1676 15.6236 73.5535 15.7751 73.8707 16.0781C74.1927 16.3764 74.3537 16.7339 74.3537 17.1506C74.3537 17.572 74.1927 17.9342 73.8707 18.2372C73.5535 18.5355 73.1676 18.6847 72.7131 18.6847ZM86.8271 20.0909L83.0131 31H79.604L75.7901 20.0909H78.9862L81.2518 27.8963H81.3654L83.6239 20.0909H86.8271ZM88.3754 31V20.0909H91.2589V22.0156H91.3867C91.614 21.3764 91.9928 20.8722 92.5231 20.5028C93.0534 20.1335 93.6879 19.9489 94.4265 19.9489C95.1746 19.9489 95.8114 20.1359 96.337 20.5099C96.8626 20.8793 97.213 21.3812 97.3881 22.0156H97.5018C97.7243 21.3906 98.1268 20.8911 98.7092 20.517C99.2963 20.1383 99.9899 19.9489 100.79 19.9489C101.808 19.9489 102.634 20.2732 103.269 20.9219C103.908 21.5658 104.228 22.4796 104.228 23.6634V31H101.209V24.2599C101.209 23.6539 101.048 23.1993 100.726 22.8963C100.404 22.5933 100.002 22.4418 99.5188 22.4418C98.9696 22.4418 98.5411 22.617 98.2333 22.9673C97.9255 23.313 97.7717 23.7699 97.7717 24.3381V31H94.8384V24.196C94.8384 23.661 94.6845 23.2348 94.3768 22.9176C94.0737 22.6004 93.6737 22.4418 93.1765 22.4418C92.8403 22.4418 92.5373 22.527 92.2674 22.6974C92.0022 22.8632 91.7915 23.0975 91.6353 23.4006C91.479 23.6989 91.4009 24.0492 91.4009 24.4517V31H88.3754ZM109.728 31.206C109.032 31.206 108.412 31.0852 107.868 30.8438C107.323 30.5975 106.892 30.2353 106.575 29.7571C106.262 29.2741 106.106 28.6728 106.106 27.9531C106.106 27.3471 106.217 26.8381 106.44 26.4261C106.663 26.0142 106.966 25.6828 107.349 25.4318C107.733 25.1809 108.168 24.9915 108.656 24.8636C109.148 24.7358 109.664 24.6458 110.204 24.5938C110.839 24.5275 111.35 24.4659 111.738 24.4091C112.127 24.3475 112.408 24.2576 112.583 24.1392C112.759 24.0208 112.846 23.8456 112.846 23.6136V23.571C112.846 23.1212 112.704 22.7732 112.42 22.527C112.141 22.2808 111.743 22.1577 111.227 22.1577C110.682 22.1577 110.249 22.2784 109.927 22.5199C109.605 22.7566 109.392 23.0549 109.288 23.4148L106.49 23.1875C106.632 22.5246 106.911 21.9517 107.328 21.4688C107.744 20.9811 108.282 20.607 108.94 20.3466C109.603 20.0814 110.37 19.9489 111.241 19.9489C111.847 19.9489 112.427 20.0199 112.981 20.1619C113.54 20.304 114.035 20.5241 114.466 20.8224C114.901 21.1207 115.244 21.5043 115.495 21.973C115.746 22.437 115.872 22.9934 115.872 23.642V31H113.002V29.4872H112.917C112.742 29.8281 112.508 30.1288 112.214 30.3892C111.921 30.6449 111.568 30.8461 111.156 30.9929C110.744 31.1349 110.268 31.206 109.728 31.206ZM110.595 29.1179C111.04 29.1179 111.433 29.0303 111.774 28.8551C112.115 28.6752 112.382 28.4337 112.576 28.1307C112.77 27.8277 112.868 27.4844 112.868 27.1009V25.9432C112.773 26.0047 112.643 26.0616 112.477 26.1136C112.316 26.161 112.134 26.206 111.93 26.2486C111.726 26.2865 111.523 26.322 111.319 26.3551C111.116 26.3835 110.931 26.4096 110.765 26.4332C110.41 26.4853 110.1 26.5682 109.835 26.6818C109.57 26.7955 109.364 26.9493 109.217 27.1435C109.07 27.3329 108.997 27.5696 108.997 27.8537C108.997 28.2656 109.146 28.5805 109.444 28.7983C109.747 29.0114 110.131 29.1179 110.595 29.1179ZM118.219 31V20.0909H121.152V21.9943H121.266C121.465 21.3172 121.799 20.8059 122.267 20.4602C122.736 20.1098 123.276 19.9347 123.887 19.9347C124.038 19.9347 124.202 19.9441 124.377 19.9631C124.552 19.982 124.706 20.008 124.838 20.0412V22.7259C124.696 22.6832 124.5 22.6454 124.249 22.6122C123.998 22.5791 123.768 22.5625 123.56 22.5625C123.115 22.5625 122.717 22.6596 122.367 22.8537C122.021 23.0431 121.747 23.3082 121.543 23.6491C121.344 23.9901 121.245 24.383 121.245 24.8281V31H118.219ZM130.81 35.3182C129.83 35.3182 128.989 35.1832 128.288 34.9134C127.592 34.6482 127.038 34.286 126.626 33.8267C126.214 33.3674 125.947 32.8513 125.824 32.2784L128.622 31.902C128.707 32.1198 128.842 32.3234 129.027 32.5128C129.212 32.7022 129.455 32.8537 129.759 32.9673C130.066 33.0857 130.44 33.1449 130.881 33.1449C131.539 33.1449 132.081 32.9839 132.507 32.6619C132.938 32.3447 133.153 31.812 133.153 31.0639V29.0682H133.026C132.893 29.3712 132.694 29.6577 132.429 29.9276C132.164 30.1974 131.823 30.4176 131.406 30.5881C130.99 30.7585 130.492 30.8438 129.915 30.8438C129.096 30.8438 128.35 30.6544 127.678 30.2756C127.01 29.892 126.477 29.3073 126.08 28.5213C125.687 27.7306 125.49 26.7315 125.49 25.5241C125.49 24.2884 125.691 23.2562 126.094 22.4276C126.496 21.599 127.031 20.9787 127.699 20.5668C128.371 20.1548 129.107 19.9489 129.908 19.9489C130.518 19.9489 131.03 20.053 131.442 20.2614C131.854 20.465 132.185 20.7206 132.436 21.0284C132.692 21.3314 132.888 21.6297 133.026 21.9233H133.139V20.0909H136.143V31.1065C136.143 32.0346 135.916 32.8111 135.462 33.4361C135.007 34.0611 134.377 34.5298 133.572 34.8423C132.772 35.1596 131.851 35.3182 130.81 35.3182ZM130.874 28.571C131.361 28.571 131.773 28.4503 132.109 28.2088C132.45 27.9626 132.711 27.6122 132.891 27.1577C133.075 26.6984 133.168 26.1491 133.168 25.5099C133.168 24.8707 133.078 24.3168 132.898 23.848C132.718 23.3745 132.457 23.0076 132.116 22.7472C131.776 22.4867 131.361 22.3565 130.874 22.3565C130.376 22.3565 129.957 22.4915 129.616 22.7614C129.276 23.0265 129.018 23.3958 128.842 23.8693C128.667 24.3428 128.58 24.8897 128.58 25.5099C128.58 26.1397 128.667 26.6842 128.842 27.1435C129.022 27.598 129.28 27.9508 129.616 28.2017C129.957 28.4479 130.376 28.571 130.874 28.571ZM147.628 23.2017L144.858 23.3722C144.811 23.1354 144.709 22.9223 144.553 22.733C144.396 22.5388 144.19 22.3849 143.935 22.2713C143.684 22.1529 143.383 22.0938 143.033 22.0938C142.564 22.0938 142.169 22.1932 141.847 22.392C141.525 22.5862 141.364 22.8466 141.364 23.1733C141.364 23.4337 141.468 23.6539 141.676 23.8338C141.884 24.0137 142.242 24.1581 142.749 24.267L144.723 24.6648C145.784 24.8826 146.574 25.233 147.095 25.7159C147.616 26.1989 147.876 26.8333 147.876 27.6193C147.876 28.3343 147.666 28.9616 147.244 29.5014C146.828 30.0412 146.255 30.4626 145.526 30.7656C144.801 31.0639 143.965 31.2131 143.018 31.2131C141.574 31.2131 140.424 30.9124 139.567 30.3111C138.714 29.705 138.215 28.8812 138.068 27.8395L141.044 27.6832C141.134 28.1236 141.352 28.4598 141.697 28.6918C142.043 28.919 142.486 29.0327 143.026 29.0327C143.556 29.0327 143.982 28.9309 144.304 28.7273C144.631 28.5189 144.796 28.2514 144.801 27.9247C144.796 27.6501 144.68 27.4252 144.453 27.25C144.226 27.0701 143.875 26.9328 143.402 26.8381L141.513 26.4616C140.447 26.2486 139.654 25.8793 139.134 25.3537C138.617 24.8281 138.359 24.1581 138.359 23.3438C138.359 22.643 138.549 22.0393 138.928 21.5327C139.311 21.026 139.848 20.6354 140.54 20.3608C141.236 20.0862 142.05 19.9489 142.983 19.9489C144.361 19.9489 145.445 20.2401 146.236 20.8224C147.031 21.4048 147.495 22.1979 147.628 23.2017Z" fill="#2EBDE5"/>
<defs>
<radialGradient id="paint0_radial_5509_2" cx="0" cy="0" r="1" gradientUnits="userSpaceOnUse" gradientTransform="translate(4 4) rotate(90) scale(32)">
<stop stop-color="white"/>
<stop offset="1" stop-color="white" stop-opacity="0"/>
</radialGradient>
<clipPath id="clip0_5509_2">
<rect width="33" height="24" fill="white" transform="translate(7 12)"/>
</clipPath>
</defs>
</svg>
